<svg version="1.1"
     baseProfile="full"
     width="500" height="500"
     xmlns="http://www.w3.org/2000/svg">

    <g data-item-type="image" data-item="Image" data-logo-item="" id="it--logo_0" class="it">
        <g class="it__inner" transform="translate(10 10) scale(1.5 1.5) rotate(0 0 0)">
          <g>
          	<path fill="#27628E" d="M174.5,182.6c-10.4,3-21.6,8.2-32.5,15.3l27,37.2C178.6,223.9,180.2,204.5,174.5,182.6z" data-part-id="it--logo_0__0"></path>
          	<path fill="#27628E" d="M107.2,231.4c19.1,12.1,38.1,16.7,51.6,11.1l-27-37.2C121.7,213.4,113.3,222.5,107.2,231.4z" data-part-id="it--logo_0__1"></path>
          	<path fill="#D77D31" d="M170.8,170.4c-4.3-11.9-10.5-24.1-18.5-36l-36.9,26.8l19.2,26.4C146.7,179.6,159.1,173.8,170.8,170.4z" data-part-id="it--logo_0__2"></path>
          	<path fill="#5DB65F" d="M96.8,224.1c6.9-10.1,16.2-20.1,27.6-29.1l-19.2-26.4l-36.9,26.8C77.1,206.7,86.8,216.4,96.8,224.1z" data-part-id="it--logo_0__3"></path>
          	<path fill="#27628E" d="M209,181.9c-5.8-2.5-13.3-3.1-21.8-2.1c4.3,17,4.6,32.9,0.9,45.8C198.5,212.8,205.6,197.7,209,181.9z" data-part-id="it--logo_0__4"></path>
          	<path fill="#00B3E6" d="M195,103.4l-32.3,23.5c9.2,13.5,16.1,27.3,20.8,40.7c10.2-1.5,19.6-1,27.5,1.6   C213,146.8,207.9,123.6,195,103.4z" data-part-id="it--logo_0__5"></path>
          	<path fill="#27628E" d="M144.1,257.7c-13.5-0.4-28.4-5.7-43.3-15c-3.6,7.7-5.4,15.1-4.8,21.4C112,265.7,128.5,263.6,144.1,257.7z" data-part-id="it--logo_0__6"></path>
          	<path fill="#C46158" d="M58,202.9l-32.3,23.5c15.2,18.5,35.6,30.6,57.6,35.6c0-8.3,2.4-17.4,7-26.6C79,226.7,68,215.8,58,202.9z" data-part-id="it--logo_0__7"></path>
          	<path fill="#0084ff" d="M273.4,38.1l-79-12.8l-21.3,76.5L203.9,82c80.4,174.7-105.4,193-105.4,193c221.4,0,146.9-215.3,146.9-215.3   L273.4,38.1z" data-part-id="it--it01"></path>
          </g>
        </g>
    </g>

</svg>
